<svg height="64" viewBox="0 0 64 64" width="64" xmlns="http://www.w3.org/2000/svg"><g fill="none" fill-rule="evenodd"><path d="m14 8.00659927c0-1.10821418.8898926-2.00659927 1.9997073-2.00659927h32.0005854c1.1044079 0 1.9997073.90255737 1.9997073 2.00659927v44.00296153c0 3.3084282-2.6764399 5.9904392-6.0053227 5.9904392h-23.9893546c-3.3166482 0-6.0053227-2.6862467-6.0053227-5.9904392z" fill="#fcc24c"/><g fill="#595959"><path d="m23 42v-3h-3v3h-3v3h3v3h3v-3h3v-3z"/><circle cx="39" cy="47" r="2"/><circle cx="39" cy="37" r="2"/><circle cx="34" cy="42" r="2"/><circle cx="44" cy="42" r="2"/><path d="m17 11h30v21h-30z"/></g><path d="m24 7v1m-4-1v1" stroke="#ed9111" stroke-linecap="square" stroke-width="2"/></g></svg>